<svg id="visual" viewBox="0 0 607.5 1080" width="607.5" height="1080" xmlns="http://www.w3.org/2000/svg" xmlns:xlink="http://www.w3.org/1999/xlink" version="1.1"><rect x="0" y="0" width="607.5" height="1080" fill="#010d14"></rect><path d="M478 1080L490 960L449 840L494 720L490 600L463 480L469 360L439 240L484 120L499 0L608 0L608 120L608 240L608 360L608 480L608 600L608 720L608 840L608 960L608 1080Z" fill="#b2beb5"></path><path d="M521 1080L478 960L465 840L529 720L483 600L479 480L457 360L473 240L505 120L476 0L608 0L608 120L608 240L608 360L608 480L608 600L608 720L608 840L608 960L608 1080Z" fill="#9fb89f"></path><path d="M490 1080L543 960L533 840L551 720L538 600L556 480L539 360L509 240L516 120L497 0L608 0L608 120L608 240L608 360L608 480L608 600L608 720L608 840L608 960L608 1080Z" fill="#91b186"></path><path d="M551 1080L548 960L569 840L566 720L572 600L557 480L558 360L543 240L545 120L581 0L608 0L608 120L608 240L608 360L608 480L608 600L608 720L608 840L608 960L608 1080Z" fill="#87a96b"></path></svg>