<svg id="visual" viewBox="0 0 607.5 1080" width="607.5" height="1080" xmlns="http://www.w3.org/2000/svg" xmlns:xlink="http://www.w3.org/1999/xlink" version="1.1"><rect x="0" y="0" width="607.5" height="1080" fill="#000000"></rect><path d="M430 1080L372 926L376 771L423 617L376 463L449 309L357 154L359 0L608 0L608 154L608 309L608 463L608 617L608 771L608 926L608 1080Z" fill="#b4c9b9"></path><path d="M397 1080L441 926L468 771L410 617L427 463L464 309L416 154L461 0L608 0L608 154L608 309L608 463L608 617L608 771L608 926L608 1080Z" fill="#a0baa3"></path><path d="M434 1080L456 926L497 771L480 617L442 463L501 309L473 154L474 0L608 0L608 154L608 309L608 463L608 617L608 771L608 926L608 1080Z" fill="#8eab8d"></path><path d="M524 1080L498 926L487 771L502 617L508 463L499 309L472 154L510 0L608 0L608 154L608 309L608 463L608 617L608 771L608 926L608 1080Z" fill="#7e9c77"></path><path d="M518 1080L555 926L506 771L527 617L540 463L507 309L511 154L525 0L608 0L608 154L608 309L608 463L608 617L608 771L608 926L608 1080Z" fill="#6f8d60"></path><path d="M552 1080L547 926L544 771L557 617L556 463L549 309L547 154L585 0L608 0L608 154L608 309L608 463L608 617L608 771L608 926L608 1080Z" fill="#627e4a"></path></svg>