<svg id="visual" viewBox="0 0 607.5 1080" width="607.5" height="1080" xmlns="http://www.w3.org/2000/svg" xmlns:xlink="http://www.w3.org/1999/xlink" version="1.1"><rect x="0" y="0" width="607.5" height="1080" fill="#010d14"></rect><path d="M468 1080L441 945L417 810L500 675L476 540L403 405L453 270L414 135L446 0L608 0L608 135L608 270L608 405L608 540L608 675L608 810L608 945L608 1080Z" fill="#ff69b4"></path><path d="M526 1080L500 945L526 810L445 675L511 540L513 405L447 270L485 135L463 0L608 0L608 135L608 270L608 405L608 540L608 675L608 810L608 945L608 1080Z" fill="#e1589c"></path><path d="M475 1080L549 945L502 810L487 675L515 540L516 405L547 270L539 135L492 0L608 0L608 135L608 270L608 405L608 540L608 675L608 810L608 945L608 1080Z" fill="#c34884"></path><path d="M555 1080L524 945L530 810L559 675L569 540L568 405L565 270L520 135L556 0L608 0L608 135L608 270L608 405L608 540L608 675L608 810L608 945L608 1080Z" fill="#a6386e"></path><path d="M589 1080L570 945L562 810L545 675L589 540L548 405L565 270L549 135L587 0L608 0L608 135L608 270L608 405L608 540L608 675L608 810L608 945L608 1080Z" fill="#892858"></path></svg>